<svg version="1.1" id="Layer_1" xmlns="http://www.w3.org/2000/svg" xmlns:xlink="http://www.w3.org/1999/xlink" x="0px" y="0px"
	 width="100%" viewBox="0 0 752 1024" enable-background="new 0 0 752 1024" xml:space="preserve">
<path fill="#000000" opacity="1.000000" stroke="none" 
	d="
M175.461334,950.607666 
	C142.887161,929.087708 122.175835,899.007385 108.905090,863.227722 
	C92.951210,820.214111 84.522522,775.527039 78.519516,730.218872 
	C74.934944,703.164001 71.847237,676.079346 70.027824,648.857727 
	C68.718719,629.271057 67.886009,609.652588 66.590408,590.064880 
	C64.502357,558.496277 64.110474,526.868408 63.053577,495.264435 
	C62.658257,483.443237 62.954220,471.599915 62.624653,459.775299 
	C61.891148,433.457764 61.645782,407.139374 62.035736,380.816193 
	C62.514206,348.517639 63.106972,316.209564 65.884750,284.015625 
	C69.116035,246.565613 73.256905,209.218155 82.749420,172.703354 
	C88.892464,149.072937 96.773674,126.047920 109.987701,105.372452 
	C121.967262,86.628510 137.727921,71.370377 156.488663,59.309116 
	C186.534775,39.992516 219.854080,29.369570 254.601608,22.737154 
	C293.800354,15.255118 333.429138,12.886335 373.292297,12.412981 
	C405.303192,12.032867 437.279572,12.199082 469.148224,14.998412 
	C505.051361,18.152126 540.407837,24.353767 574.193054,37.639664 
	C600.434509,47.959019 623.907593,62.340225 642.957458,83.467575 
	C658.064697,100.222336 667.973511,119.927277 675.560364,140.872604 
	C691.749695,185.566910 699.819824,232.031281 705.457275,279.048645 
	C709.779053,315.092926 712.601929,351.233856 713.666931,387.504303 
	C714.674194,421.808685 714.582275,456.125793 711.363647,490.324402 
	C707.998230,526.082092 704.068481,561.786560 700.422241,597.518066 
	C697.332214,627.798584 694.753235,658.139404 691.131836,688.355713 
	C684.935669,740.056946 677.573303,791.593689 663.403320,841.862610 
	C657.521301,862.729492 650.299683,883.110657 639.741760,902.167175 
	C624.281128,930.072815 602.158752,951.124268 573.961243,965.814636 
	C542.621582,982.141968 508.836578,989.653381 473.974457,993.368164 
	C437.259552,997.280457 400.446014,996.809937 363.650879,995.888855 
	C335.195251,995.176575 306.775177,993.284119 278.673706,988.306641 
	C256.509644,984.380798 234.747253,978.929626 213.791779,970.566650 
	C200.460678,965.246521 187.793549,958.636780 175.461334,950.607666 
M694.736572,525.429993 
	C697.619019,504.492859 699.682190,483.465485 700.299133,462.347198 
	C701.676392,415.204163 701.063477,368.105530 696.815735,321.080902 
	C693.940918,289.255585 690.413879,257.540283 684.624939,226.092468 
	C679.099060,196.073853 671.885681,166.530762 660.698303,138.063965 
	C651.722961,115.225624 638.881226,95.048050 619.917053,79.101746 
	C593.604492,56.976429 562.424988,45.287445 529.579102,37.497097 
	C492.639374,28.735781 454.931763,26.098633 417.128387,25.470861 
	C372.488983,24.729568 327.855347,25.294584 283.487061,31.295944 
	C244.147232,36.617138 205.924240,45.618210 171.113022,65.707466 
	C151.039429,77.291756 134.074692,92.318283 121.429680,111.855247 
	C108.048836,132.529083 100.366539,155.605942 94.460617,179.253281 
	C82.917549,225.471756 79.140366,272.762848 76.517677,320.112213 
	C75.146080,344.874542 75.109695,369.728668 75.067261,394.542389 
	C75.011436,427.190643 74.880661,459.845490 76.057480,492.486755 
	C76.831322,513.950928 77.365868,535.423767 77.989113,556.893250 
	C78.732704,582.508179 80.336678,608.072510 82.016556,633.642090 
	C84.252754,667.679321 87.375580,701.600159 92.151016,735.385315 
	C97.960098,776.483337 105.632614,817.113220 120.058708,856.207153 
	C128.495346,879.070007 139.585266,900.298157 156.693497,918.070496 
	C183.178314,945.583435 216.567230,960.225830 252.668823,969.603333 
	C295.205688,980.652344 338.838409,982.388550 382.456482,983.526306 
	C411.097351,984.273438 439.732147,983.628906 468.298370,980.889282 
	C497.440735,978.094421 525.891113,972.571228 553.071777,961.284973 
	C577.378540,951.192078 598.326965,936.564026 614.933777,916.049927 
	C629.297546,898.306641 638.238281,877.701843 645.457336,856.299316 
	C658.375061,818.001770 665.523438,778.369202 671.415649,738.550964 
	C676.623291,703.359436 680.885010,668.028320 683.999329,632.557007 
	C687.111694,597.107849 691.093079,561.734924 694.736572,525.429993 
z"/>
<path fill="#000000" opacity="1.000000" stroke="none" 
	d="
M555.489136,738.682312 
	C559.476379,755.792053 560.312317,772.810059 558.858582,789.728333 
	C556.234009,820.274475 550.499878,850.287415 541.412659,879.666321 
	C531.721191,910.998718 511.209503,931.864197 481.278870,944.174255 
	C451.287323,956.509277 420.238037,964.298950 387.717773,964.775940 
	C366.994659,965.079895 346.593018,962.112732 326.629852,956.183044 
	C312.197571,951.896362 298.329529,946.483215 285.223328,938.999695 
	C262.968231,926.292175 248.899750,906.812439 238.454575,884.056091 
	C227.784775,860.810425 221.482666,836.372070 219.049683,811.059753 
	C216.136292,780.749207 217.051544,750.609619 225.565857,720.995972 
	C233.908569,691.979248 253.725800,676.233215 282.311768,669.572205 
	C311.577393,662.752808 341.282501,661.723145 371.108002,661.825256 
	C409.273468,661.955994 447.305511,663.879395 484.799133,671.659851 
	C497.379944,674.270508 509.591614,678.201660 521.014343,684.253357 
	C540.243896,694.441345 549.034180,711.912476 554.149414,731.915527 
	C554.683350,734.003357 554.997986,736.147217 555.489136,738.682312 
M283.090302,764.523010 
	C282.495880,770.976929 281.590393,777.420349 281.370697,783.886963 
	C280.889130,798.061890 282.795471,812.111694 284.300201,826.161804 
	C287.486359,855.912292 293.795685,884.909424 305.890167,912.439758 
	C312.980865,928.579895 323.650970,940.839539 341.468658,945.535889 
	C351.840118,948.269592 362.438995,949.316589 373.052551,949.454895 
	C386.519440,949.630249 400.022980,949.061768 413.410919,947.523987 
	C425.865509,946.093567 438.070007,943.172363 448.977051,936.685120 
	C463.360382,928.130188 468.932190,913.613159 473.701202,898.682800 
	C480.192841,878.359436 483.860229,857.342651 488.841766,836.650208 
	C494.333282,813.839417 496.379272,790.826233 492.828979,767.374390 
	C489.972412,748.504944 480.545105,736.184631 461.478119,731.971436 
	C449.914307,729.416199 438.213348,727.770264 426.404205,727.413574 
	C411.254364,726.955994 396.069946,727.454895 380.933472,726.789917 
	C360.916077,725.910400 341.023956,726.647827 321.191895,729.346252 
	C297.656647,732.548523 286.627991,742.542969 283.090302,764.523010 
M450.791718,946.178040 
	C463.882568,941.757446 476.954620,937.350952 489.246216,930.855774 
	C505.472961,922.281128 518.384216,910.554810 526.474060,893.837280 
	C534.963013,876.294922 539.260742,857.540833 543.221375,838.604919 
	C549.946289,806.452759 553.734558,774.218750 547.670654,741.539612 
	C544.717529,725.624756 539.992737,710.328247 527.449646,699.043457 
	C517.557495,690.143799 505.244293,685.817322 492.645721,682.368713 
	C456.998901,672.611145 420.329742,672.019775 383.786499,670.476318 
	C365.806152,669.716919 347.797516,670.216125 329.863220,671.455383 
	C312.791779,672.635010 295.721649,674.230835 279.165405,679.200439 
	C262.690735,684.145752 248.344055,691.835388 240.051697,707.825806 
	C233.935745,719.619446 230.117218,732.289307 228.529236,745.341003 
	C223.627319,785.630066 225.439606,825.481689 239.271301,864.081726 
	C248.213486,889.036743 260.351715,912.006653 283.000366,927.586060 
	C293.295776,934.667969 304.378906,940.166992 316.599274,943.397278 
	C313.887817,939.571106 310.601501,936.320190 307.993195,932.594604 
	C295.244019,914.385010 289.059204,893.461548 283.763458,872.258423 
	C278.673737,851.880188 276.115356,831.050537 273.992188,810.202881 
	C272.354736,794.124512 271.925812,777.989258 274.715820,761.917786 
	C278.461792,740.339783 290.704407,727.249817 312.317505,722.536926 
	C325.256683,719.715393 338.297882,718.422180 351.436249,718.170654 
	C375.753204,717.705200 400.077972,717.949158 424.387146,718.811218 
	C437.377350,719.271790 450.251862,720.628052 462.963287,723.664185 
	C483.530731,728.576599 496.023865,740.913940 500.334839,761.815735 
	C504.400757,781.529419 504.223877,801.291931 500.600800,820.846497 
	C495.816437,846.668701 489.975220,872.321594 482.867279,897.608276 
	C477.403076,917.047424 469.758850,935.515625 450.791718,946.178040 
z"/>
<path fill="#000000" opacity="1.000000" stroke="none" 
	d="
M519.008789,557.116333 
	C501.589294,564.754089 483.558228,568.614807 465.213379,571.151794 
	C433.818542,575.493530 402.248505,576.980591 370.587616,576.085449 
	C340.610046,575.237976 310.720581,573.045166 281.618225,565.263794 
	C263.601410,560.446411 246.391251,553.557068 234.196716,538.367859 
	C223.093643,524.538025 217.222046,508.343689 213.879135,491.117859 
	C208.776398,464.823914 207.778625,438.233185 208.954193,411.590454 
	C209.782288,392.822449 212.110352,374.206238 217.687057,356.084991 
	C226.233459,328.313843 244.945053,311.469635 272.523499,303.805420 
	C292.796967,298.171326 313.501007,295.176056 334.465607,293.856354 
	C356.417206,292.474579 378.402313,291.660126 400.386230,292.147461 
	C430.498383,292.815002 460.663971,293.228180 490.163330,300.671997 
	C507.480499,305.041809 523.980896,310.886963 536.706177,324.256378 
	C547.643005,335.746765 554.336609,349.686981 559.036621,364.540924 
	C565.356812,384.515381 568.285278,405.089294 567.208313,426.063019 
	C566.594910,438.008789 565.362732,449.927094 564.229736,461.840729 
	C562.750916,477.390228 562.311218,493.080963 558.278931,508.303284 
	C556.184753,516.208984 553.475586,523.879456 549.487549,531.060913 
	C542.629272,543.411072 531.949463,551.295959 519.008789,557.116333 
M270.600311,552.869873 
	C271.222504,553.106018 271.839478,553.357178 272.467712,553.576050 
	C304.544342,564.753479 338.039581,566.191223 371.465881,567.473083 
	C399.780182,568.559021 428.043182,566.829224 456.224365,563.741760 
	C473.836731,561.812073 491.077850,558.322815 507.832153,552.580872 
	C526.777832,546.087952 541.186035,534.652832 547.600098,514.926575 
	C551.684998,502.363739 553.538940,489.352386 554.666443,476.244873 
	C555.635681,464.977631 555.973511,453.646698 557.234436,442.416199 
	C559.197021,424.936859 559.511658,407.539490 556.582764,390.155334 
	C553.936584,374.449280 549.065369,359.523987 541.653809,345.355133 
	C530.774475,324.556793 512.239197,314.794098 490.684387,309.428375 
	C461.240112,302.098694 431.080719,301.134430 400.976990,300.498901 
	C376.172607,299.975250 351.366028,300.909698 326.633545,303.231232 
	C306.055359,305.162842 285.719299,307.944305 266.106934,315.107697 
	C246.909012,322.119659 234.476990,335.236664 227.478256,354.147491 
	C220.213394,373.777374 217.847702,394.198151 217.384598,414.904968 
	C216.781082,441.890106 216.981873,468.838409 223.311401,495.333588 
	C229.659866,521.907898 242.568756,543.098572 270.600311,552.869873 
z"/>
<path fill="#000000" opacity="1.000000" stroke="none" 
	d="
M453.716248,543.939209 
	C423.303467,551.717651 392.798218,552.643372 362.081970,550.486694 
	C347.626465,549.471741 333.448486,547.173584 319.335785,543.556091 
	C292.394745,536.650208 277.558746,518.853394 271.437744,492.817444 
	C263.814819,460.392761 265.251801,428.153351 274.207336,396.125732 
	C281.947998,368.442871 300.193451,353.678101 328.475464,349.706116 
	C355.695038,345.883301 382.903442,346.263702 410.207764,347.511902 
	C427.038666,348.281281 443.641083,350.203430 459.983459,354.535095 
	C481.859955,360.333527 495.075928,374.473633 501.272308,395.838501 
	C507.146210,416.091400 508.434235,436.655212 506.553192,457.617767 
	C505.705780,467.061859 505.221405,476.540375 504.054749,485.966949 
	C500.287781,516.403625 485.161285,536.968018 453.716248,543.939209 
M488.328613,509.855865 
	C490.255035,505.956268 491.609955,501.857819 492.708344,497.654968 
	C496.981903,481.302765 497.933624,464.561829 498.877747,447.786987 
	C499.889832,429.804016 497.685577,412.337891 492.068420,395.229645 
	C487.325989,380.785522 478.747192,369.970337 464.057343,364.843506 
	C455.414917,361.827240 446.558167,359.534515 437.463959,358.292084 
	C412.800720,354.922546 387.993439,354.917969 363.185150,355.324615 
	C347.532806,355.581207 331.939606,356.506317 316.810028,361.205109 
	C305.271545,364.788605 295.691772,370.634155 289.683105,381.656342 
	C282.723022,394.423828 279.066650,408.131653 277.136047,422.384827 
	C273.707642,447.695892 273.861053,472.834290 281.548981,497.484711 
	C286.733826,514.109314 296.496765,526.639893 313.488586,532.656372 
	C330.573578,538.705811 348.264984,541.688171 366.252228,542.577148 
	C383.373352,543.423462 400.535492,543.583130 417.641876,541.695312 
	C432.724396,540.030823 447.671967,537.612488 461.951843,532.353455 
	C473.136841,528.234192 482.936584,522.121216 488.328613,509.855865 
z"/>
<path fill="#000000" opacity="1.000000" stroke="none" 
	d="
M403.935089,450.933289 
	C402.175079,455.092682 400.540894,458.907898 398.955811,462.743408 
	C397.746063,465.670715 396.544067,468.604187 394.597015,471.136200 
	C389.641663,477.580139 384.661652,477.619904 379.580292,471.249725 
	C375.276672,465.854553 372.958649,459.347382 369.661041,453.388275 
	C368.233765,450.809021 367.247620,447.920319 364.755981,446.029327 
	C362.295502,446.723389 361.384033,448.718994 360.386475,450.610077 
	C357.279724,456.499786 354.232239,462.422211 352.091248,468.748932 
	C351.026825,471.894348 349.091492,472.263153 346.260986,471.081299 
	C343.534821,469.943054 342.961151,468.496002 344.160339,465.655365 
	C346.877899,459.218079 349.305115,452.663696 352.872772,446.615356 
	C354.584076,443.714111 356.627869,441.106018 359.338562,439.092499 
	C363.182678,436.236969 367.118774,436.451355 370.608185,439.768311 
	C374.547974,443.513367 376.714447,448.434448 379.205444,453.130188 
	C381.525604,457.503906 383.183258,462.264496 386.765167,466.456055 
	C390.516083,462.503113 391.677704,457.587097 393.668427,453.162262 
	C395.371857,449.375946 396.623627,445.395599 398.950500,441.890411 
	C403.269958,435.383606 408.545349,434.657440 414.364044,439.941711 
	C418.121735,443.354279 420.590393,447.758698 422.931763,452.148987 
	C425.668610,457.280853 427.823700,462.721832 430.533020,467.869873 
	C432.277893,471.185394 430.957031,472.523346 428.075623,473.953918 
	C424.622803,475.668213 423.735413,473.669739 422.681274,471.126984 
	C419.809937,464.200775 416.368042,457.549042 412.546570,451.103088 
	C411.292419,448.987640 410.007446,446.787140 407.462433,445.864960 
	C405.297302,446.757874 404.792542,448.751617 403.935089,450.933289 
z"/>
<path fill="#000000" opacity="1.000000" stroke="none" 
	d="
M367.718292,423.814606 
	C370.276215,417.794464 372.982147,412.257782 376.869171,407.451263 
	C382.590790,400.376099 388.257751,400.083801 394.426758,406.602386 
	C400.534882,413.056641 404.648834,420.889038 408.960419,428.567383 
	C410.566956,431.428436 409.072479,432.707947 406.680878,433.926910 
	C404.350616,435.114594 402.850372,435.064880 401.445221,432.497498 
	C398.018860,426.237152 394.657898,419.920013 390.120209,414.338531 
	C386.336975,409.685028 384.895203,409.545868 381.820679,414.759705 
	C378.879303,419.747650 376.462189,425.064484 374.089691,430.360016 
	C372.853760,433.118744 371.913544,434.949677 368.297577,433.327087 
	C364.774109,431.746033 365.195618,429.575439 366.352478,426.895996 
	C366.747711,425.980652 367.168762,425.076508 367.718292,423.814606 
z"/>
<path fill="#000000" opacity="1.000000" stroke="none" 
	d="
M326.743103,490.792297 
	C326.682312,486.831116 327.344513,483.669586 331.361725,482.583130 
	C335.705231,481.408356 341.399109,483.523132 343.418396,486.988831 
	C343.737946,486.929169 344.079346,486.916504 344.370789,486.789276 
	C346.166199,486.005493 344.453674,481.946045 347.620789,482.825958 
	C350.456360,483.613708 348.870911,486.504211 349.261627,488.453583 
	C349.389679,489.092346 349.375580,489.790070 349.277069,490.438080 
	C348.978333,492.402527 350.265289,495.389496 347.313080,495.851135 
	C344.396973,496.307129 346.012177,492.571838 344.339874,491.468018 
	C342.403625,491.112061 342.318420,492.592377 342.021820,493.878052 
	C341.743835,495.083130 341.277069,496.189026 339.762054,495.959137 
	C338.353058,495.745392 337.956726,494.562744 337.907471,493.374207 
	C337.818665,491.231903 337.882355,489.083282 337.882355,486.567169 
	C335.248993,486.563202 332.447205,484.932953 331.394196,488.427460 
	C329.949402,493.221954 334.597870,492.121613 336.813171,493.208649 
	C336.669067,496.379120 334.506073,496.303833 332.542755,496.304321 
	C329.178986,496.305145 327.444061,494.334534 326.743103,490.792297 
z"/>
<path fill="#000000" opacity="1.000000" stroke="none" 
	d="
M430.145721,487.220825 
	C430.150452,489.168427 430.227631,490.666107 430.122162,492.150787 
	C430.010956,493.717102 430.424683,495.909149 428.038422,495.955261 
	C425.670990,496.001038 426.112946,493.730804 425.709930,492.089996 
	C424.336670,493.367950 424.591309,496.036896 422.090088,496.145782 
	C419.909546,496.240692 419.705963,494.177704 418.673340,492.851532 
	C417.722687,494.044037 418.131256,496.504486 415.731506,495.979492 
	C414.104370,495.623535 413.977112,494.125885 413.896118,492.817688 
	C413.783630,491.001190 413.755249,489.168976 413.855713,487.352600 
	C413.961914,485.432861 413.636047,483.134979 416.473114,482.766113 
	C419.023865,482.434479 419.905823,484.254395 420.695068,486.164276 
	C421.008575,486.922882 421.365356,487.663544 421.865112,488.773804 
	C424.006836,486.737122 423.511108,481.984711 427.940582,482.832581 
	C430.116302,483.249023 429.979126,485.130127 430.145721,487.220825 
z"/>
<path fill="#000000" opacity="1.000000" stroke="none" 
	d="
M384.530579,495.766815 
	C375.987793,498.405396 372.430359,491.400391 374.538391,486.383575 
	C376.583588,481.516266 382.573120,480.731415 385.987000,485.087555 
	C384.216949,487.729279 379.148407,484.422211 378.516968,489.033600 
	C378.310883,490.538696 378.936249,491.563843 380.626495,492.519958 
	C381.163513,490.931122 378.559570,488.798065 381.251740,488.042297 
	C382.695892,487.636902 384.493805,487.358704 385.419006,488.738464 
	C386.927765,490.988464 386.822632,493.407623 384.530579,495.766815 
z"/>
<path fill="#000000" opacity="1.000000" stroke="none" 
	d="
M372.602600,490.615295 
	C373.027985,492.412811 373.384766,493.835815 373.742950,495.264496 
	C370.360016,496.021515 370.360016,496.021515 368.069641,492.514587 
	C366.646271,493.336700 367.777496,496.762482 364.974792,495.930573 
	C362.878571,495.308411 363.664062,493.205688 363.522949,491.656982 
	C363.448212,490.836731 363.396637,489.992645 363.503906,489.181702 
	C363.790894,487.011688 362.487701,484.181091 365.026489,482.898987 
	C367.096405,481.853638 369.641205,482.149597 371.680695,483.480316 
	C374.488556,485.312347 372.872101,487.900818 372.602600,490.615295 
z"/>
<path fill="#000000" opacity="1.000000" stroke="none" 
	d="
M356.676819,493.672974 
	C354.000458,493.012207 353.460510,496.326050 351.215820,495.971222 
	C349.804993,493.175995 352.228546,483.914581 354.674103,482.802429 
	C355.627777,482.368713 356.634888,482.424225 357.555176,482.932159 
	C359.031738,483.747040 362.848236,493.434784 361.966309,494.767426 
	C359.712463,498.173309 358.607788,494.493134 356.676819,493.672974 
z"/>
<path fill="#000000" opacity="1.000000" stroke="none" 
	d="
M405.020447,483.296906 
	C407.856049,481.733002 409.359589,482.884277 410.255432,485.286469 
	C410.950775,487.150970 411.661865,489.016083 412.217407,490.924194 
	C412.660004,492.444275 414.027618,494.207489 412.515442,495.566956 
	C410.716187,497.184509 409.651306,495.034576 408.389832,494.163849 
	C407.052673,493.240845 405.913788,493.516663 404.918579,494.735443 
	C404.014862,495.842102 402.982452,496.542572 401.106628,495.514435 
	C401.256531,491.285736 403.274841,487.496490 405.020447,483.296906 
z"/>
<path fill="#000000" opacity="1.000000" stroke="none" 
	d="
M439.771057,483.183197 
	C443.105835,486.534668 442.586548,489.202637 438.996399,491.469238 
	C438.173309,491.988892 437.128021,492.420013 436.661682,493.183197 
	C435.837128,494.532562 435.673584,496.780457 433.361969,495.787506 
	C431.526855,494.999237 432.043427,492.960815 431.943420,491.352631 
	C431.902374,490.692902 431.941620,490.027924 431.950348,489.365417 
	C432.042145,482.399384 432.438141,482.062592 439.771057,483.183197 
z"/>
<path fill="#000000" opacity="1.000000" stroke="none" 
	d="
M389.445312,482.709534 
	C392.101837,482.197906 394.399536,481.604675 396.159302,483.656006 
	C396.413818,486.349426 393.946594,485.640778 392.801666,486.545319 
	C393.711609,487.471741 395.515442,487.350067 395.576508,489.100647 
	C395.484100,491.082703 393.180756,490.542969 392.420868,491.850311 
	C393.105835,493.588379 396.399719,492.126740 396.181396,494.911194 
	C390.757172,498.088165 387.614075,496.641846 387.740906,490.772919 
	C387.798187,488.123260 386.521210,485.122528 389.445312,482.709534 
z"/>
<path fill="#000000" opacity="1.000000" stroke="none" 
	d="
M445.299866,490.902100 
	C443.037170,489.084381 442.083862,487.112885 443.215027,484.584259 
	C444.073761,482.664703 445.773926,482.034424 447.730927,482.193146 
	C449.074402,482.302124 450.470856,482.716064 450.866638,484.221344 
	C451.492279,486.600677 448.982330,485.729645 448.025391,486.653931 
	C450.778290,489.125366 453.799866,491.882812 449.930511,495.228546 
	C447.741974,497.120911 444.529938,497.569275 442.895569,494.836823 
	C442.368713,491.726227 446.474701,493.962982 445.299866,490.902100 
z"/>
</svg>