<svg version="1.1" id="Layer_1" xmlns="http://www.w3.org/2000/svg" xmlns:xlink="http://www.w3.org/1999/xlink" x="0px" y="0px"
	 width="100%" viewBox="0 0 1024 1008" enable-background="new 0 0 1024 1008" xml:space="preserve">
<path fill="#000000" opacity="1.000000" stroke="none" 
	d="
M48.712296,492.001038 
	C49.199577,457.872040 50.937996,424.266785 50.574867,390.621460 
	C50.269283,362.307465 50.730495,334.001312 52.930130,305.768127 
	C54.467442,286.036102 57.475937,266.478363 60.866226,246.964310 
	C62.510345,237.500961 62.420208,227.750427 63.573360,218.185150 
	C67.841965,182.777405 81.334480,151.123840 103.254364,123.099197 
	C128.331833,91.037575 160.507584,68.316872 197.301056,51.447918 
	C233.296463,34.944859 271.523926,27.495138 310.268921,21.485790 
	C335.595245,17.557682 361.006805,14.547211 386.508240,12.216800 
	C398.441498,11.126298 410.410400,10.331542 422.380035,9.750181 
	C467.651459,7.551356 512.960876,7.766138 558.268494,7.711454 
	C587.256958,7.676467 616.229126,8.347910 645.157288,9.949883 
	C685.898438,12.206027 726.333435,17.042707 766.215393,26.030542 
	C776.094116,28.256828 786.237549,29.090981 796.150513,31.422197 
	C835.710876,40.725597 869.849426,59.886307 899.392456,87.499954 
	C920.789673,107.499809 938.144165,130.581406 950.657837,157.099350 
	C963.367554,184.032867 970.755676,212.260651 971.517090,242.263306 
	C972.023193,262.210480 974.037842,282.115234 975.113586,302.053223 
	C976.333435,324.660858 977.367310,347.279907 978.287537,369.901947 
	C979.790710,406.851501 980.503540,443.815552 980.396179,480.801300 
	C980.327881,504.311035 978.048828,527.667969 976.447754,551.076355 
	C975.039795,571.662231 973.713867,592.253906 972.254395,612.836121 
	C970.383240,639.223877 968.393311,665.603149 966.496277,691.989075 
	C965.398804,707.253418 964.574280,722.539734 963.287231,737.787537 
	C961.231018,762.147522 961.737183,786.756653 957.304688,810.871338 
	C950.656860,847.038086 934.956848,878.885010 910.525757,906.529419 
	C886.795410,933.381042 857.954163,952.341736 824.189453,963.904724 
	C805.649414,970.253784 786.451660,973.327881 766.892822,974.183044 
	C752.726929,974.802368 738.866211,977.768433 724.866455,979.653748 
	C704.257935,982.429016 683.641541,985.094849 662.984985,987.516479 
	C638.839661,990.347107 614.649231,992.598145 590.398743,993.940735 
	C558.490906,995.707153 526.602295,997.354553 494.581421,994.612366 
	C470.050385,992.511536 445.365387,992.139160 420.740417,991.224426 
	C392.259613,990.166382 364.072449,986.464233 335.839264,982.844116 
	C311.760773,979.756836 287.803192,975.633484 263.522156,974.085266 
	C232.865341,972.130371 205.177505,961.553650 179.780624,944.503845 
	C144.434906,920.775024 118.020279,889.025208 96.975121,852.474487 
	C77.077797,817.917419 63.715111,781.005188 58.338737,741.423950 
	C56.549454,728.250916 55.654572,714.934204 54.861130,701.652649 
	C52.895584,668.751099 51.228828,635.835754 50.476196,602.873352 
	C50.157028,588.895325 49.765472,574.921021 49.627846,560.937927 
	C49.403313,538.124878 49.025833,515.313354 48.712296,492.001038 
M672.235535,923.610046 
	C655.907471,948.032471 632.965637,964.594238 606.198364,978.468567 
	C616.746399,977.486572 626.007507,976.577820 635.277344,975.770081 
	C664.453552,973.228149 693.485535,969.496826 722.463501,965.305664 
	C735.629333,963.401428 748.763245,960.394775 761.983887,959.926025 
	C794.761902,958.763977 825.539917,951.254700 853.846802,934.488403 
	C898.444580,908.072754 927.167480,869.625610 940.694336,819.659790 
	C947.646362,793.980408 945.976013,767.452759 948.562073,741.347046 
	C950.267090,724.135315 950.864502,706.815674 952.070740,689.552246 
	C953.902832,663.331482 955.829224,637.117432 957.722839,610.901001 
	C958.945251,593.978516 960.187500,577.057434 961.408142,560.134888 
	C962.844238,540.223755 964.979187,520.331604 965.535339,500.395599 
	C966.473572,466.762756 966.240662,433.104584 964.875122,399.467926 
	C964.037537,378.837463 963.576843,358.189423 962.532471,337.570251 
	C961.126770,309.815369 959.441589,282.072845 957.631042,254.341080 
	C956.872314,242.720444 957.088379,231.022812 955.223755,219.484512 
	C950.783691,192.009613 941.240234,166.403412 926.322937,142.923676 
	C898.577820,99.253113 860.551086,68.287895 811.639099,50.932049 
	C796.497070,45.559059 780.592224,43.771076 764.990967,40.480537 
	C731.074036,33.326954 696.894897,28.211292 662.385376,25.551748 
	C631.162292,23.145475 599.819519,22.791971 568.517273,22.453833 
	C522.708679,21.958988 476.898315,22.512232 431.105438,24.144571 
	C413.461792,24.773500 395.848083,25.843662 378.288605,27.534355 
	C351.133179,30.148985 324.098572,33.743404 297.188202,38.305073 
	C266.594788,43.491070 236.489853,50.143597 207.875748,62.732399 
	C171.928940,78.547234 140.237961,99.950241 115.676453,130.961899 
	C95.411095,156.549164 82.596382,185.423920 78.170212,217.937042 
	C76.866173,227.516022 77.377480,237.277176 75.593864,246.719131 
	C70.053673,276.047302 66.260834,305.640198 65.639610,335.396423 
	C64.527069,388.686279 64.745758,442.003265 63.401405,495.298340 
	C63.124565,506.273407 63.686134,517.277283 63.826546,528.260315 
	C64.307739,565.899475 64.578926,603.535583 66.175919,641.154053 
	C67.354790,668.923340 69.143608,696.648193 71.147308,724.365601 
	C73.413719,755.717102 81.314224,785.620361 93.943520,814.330261 
	C113.526749,858.848633 140.920181,897.439026 180.085846,926.941650 
	C197.251572,939.872192 216.062592,949.609253 236.966431,955.210388 
	C249.300262,958.515259 261.938629,958.695984 274.472046,960.171021 
	C311.147522,964.487305 347.703094,969.821594 384.377014,974.152161 
	C398.173431,975.781311 412.125702,976.595154 426.169739,976.676697 
	C425.912933,975.021301 424.696259,974.983398 423.910278,974.594055 
	C399.913788,962.709778 378.837952,946.871216 360.642365,927.293701 
	C351.999847,917.994812 344.063965,908.065735 341.184662,895.196716 
	C338.425842,882.866150 335.640411,870.540222 333.040131,858.175781 
	C326.036682,824.874023 321.571625,791.248169 321.770233,757.173523 
	C321.861267,741.548157 322.822296,725.905151 323.990845,710.315247 
	C325.142426,694.951294 330.107880,680.268188 335.485382,666.094116 
	C342.092865,648.678101 355.542694,636.062500 370.629883,625.466980 
	C383.645142,616.326721 397.673981,609.703186 414.048767,609.702393 
	C482.374329,609.699036 550.699890,609.726868 619.025452,609.676758 
	C627.942932,609.670227 636.178101,612.067444 643.811951,616.375061 
	C661.945862,626.607361 675.467529,641.587280 686.667297,658.855225 
	C696.348999,673.782532 701.125732,689.865051 700.500549,707.945984 
	C699.735107,730.083679 700.370056,752.268188 700.304688,774.432068 
	C700.223999,801.786377 697.995056,828.933044 692.505188,855.783936 
	C689.534363,870.314087 685.338684,884.499084 681.376892,898.766479 
	C679.062256,907.102295 677.599609,915.651306 672.235535,923.610046 
M677.681824,671.818909 
	C670.699768,659.546570 661.923279,648.708252 651.349182,639.373596 
	C640.302002,629.621277 628.149597,623.927734 612.578430,624.062317 
	C546.768982,624.631226 480.951843,624.301453 415.137512,624.326721 
	C412.649994,624.327698 410.122650,624.369385 407.681519,624.787292 
	C390.516602,627.725403 377.097656,637.412720 364.989655,649.141846 
	C355.663910,658.175720 347.873322,668.353088 345.812714,681.680237 
	C345.271332,685.181641 344.472961,688.473816 342.954895,691.637451 
	C340.914581,695.889404 340.062988,700.473816 339.344513,705.080688 
	C336.850311,721.073608 337.160370,737.272461 336.346222,753.359314 
	C335.098938,778.004456 338.204010,802.508362 341.952118,826.867126 
	C345.140869,847.590698 350.028870,867.959778 354.622620,888.402649 
	C356.407928,896.347717 359.653351,903.072266 364.395111,909.382629 
	C372.058228,919.580444 381.361176,928.154602 391.200684,936.142395 
	C404.688232,947.091980 419.167664,956.449280 435.031281,963.734802 
	C448.395081,969.872253 462.589325,967.903809 476.373657,968.381409 
	C508.659851,969.500000 540.997620,969.051331 573.297668,969.887390 
	C585.616638,970.206238 596.648499,967.204834 607.202820,961.421692 
	C610.560547,959.581848 614.038452,957.873840 617.124817,955.640442 
	C638.833191,939.931152 659.670715,924.635132 667.467712,895.863647 
	C677.585815,858.527100 685.372437,821.186279 685.682129,782.472839 
	C685.895325,755.815552 685.532471,729.152344 685.903931,702.498352 
	C686.055847,691.593506 683.079712,681.840698 677.681824,671.818909 
z"/>
<path fill="#000000" opacity="1.000000" stroke="none" 
	d="
M529.841919,319.714722 
	C527.600708,323.657379 525.452087,327.205261 522.556396,330.256592 
	C516.203918,336.950500 509.374603,336.789825 503.372284,329.657928 
	C497.509827,322.692230 494.076965,314.309845 489.945038,306.336273 
	C486.426910,299.547180 483.713684,292.323059 479.027893,286.163086 
	C475.627869,281.693329 474.556580,281.443298 470.268494,285.120941 
	C466.174194,288.632355 463.560425,293.332245 460.839050,297.911011 
	C455.298523,307.232880 451.032776,317.173492 446.685760,327.072845 
	C445.519409,329.728943 444.388123,331.834198 440.787689,330.168884 
	C437.541595,328.667389 436.077789,326.971954 437.796112,323.298553 
	C444.280792,309.435760 450.056396,295.202972 459.386108,282.864990 
	C460.487732,281.408203 461.612122,279.934479 462.925964,278.677765 
	C471.769226,270.218719 480.211639,271.085205 487.229340,281.090515 
	C495.025635,292.205841 499.170532,305.249603 506.115143,316.815521 
	C507.990723,319.939240 509.665863,323.205597 513.070129,325.514038 
	C515.826233,324.074310 517.580505,321.696899 518.954956,319.055328 
	C524.102966,309.161041 529.209045,299.244446 534.255371,289.297882 
	C536.223389,285.418793 538.453674,281.712860 541.211853,278.367462 
	C547.476990,270.768372 555.107971,270.269348 562.409912,276.927948 
	C570.077271,283.919800 574.917664,292.904816 579.432373,301.998505 
	C583.795166,310.786316 587.469055,319.913574 591.656006,328.792542 
	C593.324036,332.329773 591.970520,333.795441 588.851318,335.235992 
	C585.498596,336.784363 584.112915,335.570068 582.840393,332.564240 
	C577.520386,319.996979 572.152588,307.442200 565.151489,295.679199 
	C562.761047,291.662933 560.166626,287.783752 556.654175,284.634003 
	C552.443909,280.858337 551.225037,280.996582 547.906250,285.404602 
	C544.074402,290.494080 541.427551,296.263977 538.531982,301.877777 
	C535.557251,307.644989 532.854065,313.552216 529.841919,319.714722 
z"/>
<path fill="#000000" opacity="1.000000" stroke="none" 
	d="
M445.000000,536.090149 
	C437.339935,536.083496 430.178864,536.002441 423.020294,536.102417 
	C419.735992,536.148193 418.047241,534.991211 418.091705,531.493530 
	C418.136200,527.990845 419.464386,526.583008 423.187134,526.588379 
	C487.294586,526.680908 551.402222,526.654419 615.509766,526.670471 
	C616.637634,526.670776 617.765442,526.873657 618.796204,526.972656 
	C620.728943,535.527649 620.273560,536.106384 611.846741,536.105774 
	C556.397827,536.101746 500.948914,536.095276 445.000000,536.090149 
z"/>
<path fill="#000000" opacity="1.000000" stroke="none" 
	d="
M507.491394,221.486862 
	C498.319458,233.323944 492.738159,246.702133 486.984161,259.951904 
	C485.147919,264.180237 483.215240,265.196289 479.137177,262.757477 
	C477.004303,261.481964 476.201752,260.562042 477.262573,258.141144 
	C483.400665,244.133163 489.172516,229.942902 498.459900,217.583282 
	C498.759613,217.184448 499.030853,216.762924 499.346527,216.377502 
	C508.091034,205.700989 518.571167,205.067154 527.757568,215.296371 
	C539.812134,228.719208 546.883118,245.188385 554.508057,261.254700 
	C556.229736,264.882446 552.444214,265.087524 550.578186,266.286377 
	C548.101562,267.877441 546.685486,266.603943 545.551392,264.286011 
	C540.507996,253.978333 535.456848,243.673996 529.645386,233.762985 
	C527.107239,229.434387 524.203979,225.373810 520.736816,221.775711 
	C515.531067,216.373444 513.452820,216.366913 507.491394,221.486862 
z"/>
</svg>