<svg version="1.1" id="Layer_1" xmlns="http://www.w3.org/2000/svg" xmlns:xlink="http://www.w3.org/1999/xlink" x="0px" y="0px"
	 width="100%" viewBox="0 0 864 944" enable-background="new 0 0 864 944" xml:space="preserve">
<path fill="#000000" opacity="1.000000" stroke="none" 
	d="
M625.412231,910.499207 
	C609.318176,913.899353 593.419189,915.470398 577.456787,916.246948 
	C504.208069,919.810364 430.898193,919.275818 357.598175,919.317749 
	C337.759888,919.329041 318.093231,916.431824 298.288940,915.771118 
	C279.993500,915.160767 261.886963,912.507507 243.702408,910.608337 
	C208.450668,906.926880 179.108841,891.287903 152.794006,868.650574 
	C128.066040,847.378357 107.327888,822.727356 91.247353,794.382507 
	C83.449203,780.636780 81.187897,764.871826 77.766991,749.641479 
	C71.863419,723.358154 67.273895,696.811157 63.084923,670.217041 
	C58.509159,641.167480 54.362011,612.048340 50.474178,582.890198 
	C46.717003,554.712036 43.126247,526.512878 40.037537,498.262482 
	C37.091049,471.312897 34.490688,444.321838 32.538074,417.263062 
	C29.500965,375.175629 29.036724,333.044739 29.948175,290.913330 
	C30.725100,255.000366 32.762074,219.062271 40.972164,183.939270 
	C51.909206,137.150345 76.317047,99.339821 117.202248,72.833961 
	C141.245422,57.246777 166.931793,46.025215 195.253677,41.106350 
	C206.094803,39.223495 217.121246,39.408504 228.018463,37.865353 
	C247.265030,35.139851 266.583344,32.838745 285.924957,30.888947 
	C306.938477,28.770601 327.984924,26.988905 349.065125,25.514736 
	C384.159424,23.060543 419.272797,22.118078 454.423187,22.859964 
	C490.883850,23.629505 527.358459,24.320732 563.784241,25.982836 
	C595.328613,27.422201 627.034363,29.260809 657.618530,37.757099 
	C691.093933,47.056602 724.662048,56.377460 756.624817,70.287430 
	C767.507690,75.023605 776.768250,82.479073 785.026306,91.162849 
	C797.973694,104.777611 809.645142,119.153618 816.077393,137.163849 
	C820.567993,149.737427 823.824829,162.612839 825.804199,175.787308 
	C831.036499,210.612671 836.786255,245.378937 841.071106,280.323090 
	C845.841003,319.222229 845.984985,358.411621 845.221313,397.558319 
	C844.572083,430.837677 841.712219,463.948273 837.618774,496.999695 
	C832.942261,534.759827 827.380188,572.386902 821.036194,609.877075 
	C811.973816,663.430908 802.750244,716.944641 789.260071,769.679199 
	C783.236145,793.227600 774.210571,814.627136 759.170105,833.578247 
	C745.084045,851.326660 728.228149,866.114746 710.017761,879.419922 
	C701.293945,885.793884 692.872498,892.946289 682.475220,896.362122 
	C663.966248,902.442749 645.017578,906.959412 625.412231,910.499207 
M502.604645,771.672668 
	C498.917755,754.987915 497.673523,738.208374 499.543060,721.133057 
	C502.845825,690.967651 513.973999,664.183289 533.852722,641.306824 
	C565.314636,605.100525 605.000793,588.494568 652.930725,593.716614 
	C690.919739,597.855591 721.410339,616.110596 745.076416,645.833191 
	C761.853455,666.903687 771.593201,691.074341 775.111633,717.710327 
	C777.552063,736.185120 776.710327,754.551453 772.362366,772.729858 
	C769.657471,784.038391 765.960938,794.981079 760.849792,805.456848 
	C764.927002,798.651062 768.798706,791.742126 770.734070,784.014282 
	C778.650024,752.405640 787.090454,720.930786 792.813416,688.796265 
	C800.997314,642.843628 809.112427,596.887390 815.974731,550.711304 
	C820.933350,517.344666 825.903809,483.967377 828.473511,450.335632 
	C830.742126,420.644043 831.460938,390.876068 831.174866,361.051147 
	C830.799011,321.859467 828.483276,282.914368 821.668213,244.281281 
	C817.339417,219.741745 815.491272,194.823013 810.640869,170.366272 
	C806.393066,148.948273 799.581055,128.770157 784.814941,111.747955 
	C771.917725,96.880180 757.727966,84.234001 738.815918,77.815201 
	C726.847290,73.753014 714.839233,69.787399 702.747681,66.111176 
	C682.239746,59.876087 662.153564,52.211922 640.965637,48.267426 
	C610.790771,42.649841 580.254578,40.681229 549.692261,39.494617 
	C512.592163,38.054176 475.457550,37.266117 438.340240,36.588760 
	C408.734528,36.048485 379.076385,37.441822 349.500946,39.462738 
	C332.904144,40.596809 316.312927,41.952686 299.768738,43.682331 
	C277.603851,45.999603 255.450195,48.501049 233.363144,51.457138 
	C220.003754,53.245129 206.476364,53.274158 193.206482,55.817791 
	C172.873810,59.715244 153.962692,67.386261 136.131729,77.677406 
	C117.385719,88.496666 101.036758,102.235893 86.820587,118.663391 
	C73.535805,134.014618 66.248825,152.372818 59.406017,170.948334 
	C51.993408,191.070648 49.739910,212.318054 47.455685,233.451767 
	C44.574024,260.112915 44.094219,286.936005 43.449467,313.717468 
	C42.900417,336.523804 44.212727,359.324554 44.878815,382.126801 
	C45.720291,410.932983 48.478298,439.569794 51.152706,468.236023 
	C54.272564,501.677002 58.274830,535.015015 62.613499,568.303467 
	C67.058540,602.408081 72.125412,636.438843 77.432602,670.421875 
	C82.510056,702.933838 88.113686,735.370483 96.334747,767.278870 
	C98.494827,775.662781 100.716064,784.066345 105.450371,791.473999 
	C124.615875,821.461670 147.166534,848.360352 176.238922,869.376465 
	C191.239700,880.220459 207.321732,889.507019 225.346191,893.195435 
	C249.909103,898.221924 274.930237,900.734558 300.082855,901.833923 
	C328.838837,903.090759 357.517059,906.532898 386.348846,905.586792 
	C415.168915,904.641052 443.987854,904.948547 472.808075,904.827698 
	C500.291290,904.712402 527.756592,903.902710 555.225952,903.099670 
	C586.250061,902.192566 617.001587,899.343994 647.149597,891.592224 
	C664.355713,887.168030 682.088745,884.041992 696.292847,872.043457 
	C697.848816,870.729065 699.936951,869.959595 700.843384,867.814087 
	C699.237976,867.140015 698.302429,868.097046 697.324951,868.558044 
	C673.113892,879.977844 647.818542,884.714478 621.100586,881.376282 
	C591.342712,877.658325 565.679565,865.209717 544.037537,844.739624 
	C523.063049,824.900757 509.550964,800.559143 502.604645,771.672668 
M694.581543,618.984497 
	C673.949341,607.997498 652.018677,603.492310 628.668152,605.116821 
	C605.616028,606.720581 584.825500,614.395020 566.144958,627.714172 
	C545.596069,642.365356 530.624756,661.609375 520.909302,684.886292 
	C513.765442,702.001953 510.360962,720.021179 510.534698,738.432068 
	C510.749420,761.182800 516.068787,782.890808 527.122131,803.014221 
	C541.207581,828.657715 561.450073,847.765625 588.070007,859.824585 
	C606.400818,868.128662 625.717468,871.278381 645.909119,869.881714 
	C678.219482,867.646851 705.458740,854.458923 727.308105,831.137451 
	C757.216675,799.213806 768.927795,760.896545 762.669128,717.599976 
	C756.359253,673.949280 733.752930,641.072632 694.581543,618.984497 
z"/>
<path fill="#000000" opacity="1.000000" stroke="none" 
	d="
M673.054077,158.239197 
	C676.907104,191.228668 675.685608,223.793579 673.465576,256.390930 
	C671.264221,288.713989 664.017273,320.122589 657.085693,351.613678 
	C652.727417,371.414093 646.315125,391.117676 644.955017,411.145203 
	C642.484924,447.516266 603.151978,488.779358 567.229004,496.759003 
	C556.143005,499.221558 544.761292,499.305878 533.495850,500.175232 
	C501.576996,502.638428 469.585388,502.985626 437.609192,502.098633 
	C408.657257,501.295593 379.728302,499.676270 350.787323,498.461121 
	C340.827881,498.042938 330.805481,498.997650 320.933960,496.775848 
	C291.292480,490.104401 269.412598,472.618744 251.610687,448.625122 
	C241.945007,435.597626 238.748352,420.805115 236.026810,405.553558 
	C234.004486,394.220398 230.390518,383.304840 226.796463,372.416748 
	C219.981049,351.769775 216.470062,330.475372 213.658447,309.014404 
	C210.155243,282.274506 207.907089,255.413162 206.069397,228.521820 
	C204.946030,212.083069 203.140198,195.659790 203.703033,179.140778 
	C204.247269,163.167725 207.013718,147.709488 215.095459,133.624542 
	C226.421509,113.885353 244.632156,103.525238 265.533295,96.977379 
	C279.584473,92.575462 294.144226,91.047470 308.731995,89.734688 
	C328.281555,87.975380 347.833435,86.235733 367.369812,84.337944 
	C403.059143,80.871017 438.777374,79.580864 474.629028,81.470985 
	C491.754700,82.373856 508.811005,83.739120 525.845764,85.615547 
	C547.984863,88.054245 569.987305,91.419708 591.945923,95.099998 
	C601.936584,96.774452 612.009338,98.093513 621.886047,100.288383 
	C651.203186,106.803436 666.812439,126.253853 672.365417,154.877594 
	C672.555603,155.857910 672.760193,156.835434 673.054077,158.239197 
M390.462280,485.814728 
	C413.243835,486.760742 436.017792,488.137207 458.808960,488.541718 
	C486.116486,489.026398 513.399109,487.458984 540.631287,485.491577 
	C548.401001,484.930267 556.320190,485.065491 563.924683,483.013184 
	C588.486816,476.384338 606.342041,460.867279 620.172241,440.140045 
	C627.083496,429.782135 629.377136,418.079163 631.362610,405.920441 
	C635.754028,379.027710 642.512329,352.582703 648.353210,325.964905 
	C653.877441,300.789764 658.212280,275.449036 659.968262,249.664001 
	C660.681641,239.188797 660.962280,228.705017 661.306091,218.241287 
	C662.021545,196.468658 662.823730,174.560669 657.529114,153.170013 
	C651.390930,128.371674 637.849060,117.688927 616.511536,113.496155 
	C601.043396,110.456711 585.383850,108.396332 569.818726,105.844299 
	C543.738586,101.568268 517.526855,98.213394 491.171265,96.461845 
	C468.938965,94.984329 446.669495,93.903351 424.331818,94.894028 
	C407.203888,95.653656 390.094971,96.447563 373.024292,98.062874 
	C353.653564,99.895813 334.272644,101.621002 314.895447,103.385719 
	C298.000610,104.924362 281.100403,106.298820 264.913239,112.057190 
	C233.769165,123.136261 221.298355,142.610214 218.301178,171.122925 
	C216.548737,187.794128 218.395401,204.387146 219.592422,220.939224 
	C221.403137,245.977081 223.200928,271.029083 226.229248,295.972656 
	C228.754318,316.771027 231.314026,337.534332 237.086700,357.758759 
	C241.874420,374.532318 247.772507,390.992737 251.060287,408.192810 
	C252.605911,416.278748 253.169098,424.503326 257.722809,431.978912 
	C265.172668,444.208954 273.976044,455.150574 285.065216,464.137146 
	C298.365204,474.915375 313.214539,482.742371 330.603302,483.743561 
	C350.204071,484.872101 369.854340,485.140411 390.462280,485.814728 
z"/>
<path fill="#000000" opacity="1.000000" stroke="none" 
	d="
M286.435730,870.542480 
	C267.131805,877.597107 247.616592,879.727295 227.614639,877.701294 
	C211.567810,876.075928 196.393906,871.540955 181.915207,864.378418 
	C156.855453,851.981689 137.558136,833.492065 123.329384,809.604614 
	C107.148125,782.439331 100.048538,752.784912 103.081718,721.527771 
	C108.372612,667.004639 134.848404,625.479187 184.620392,601.436646 
	C222.158432,583.303833 261.000244,583.581421 298.881104,601.799438 
	C342.830566,622.936096 368.702728,658.636597 377.753967,705.881531 
	C386.205597,749.996643 376.091400,790.590637 348.367157,826.110413 
	C332.284607,846.715027 311.801361,861.865417 286.435730,870.542480 
M136.382874,658.869507 
	C132.980988,664.961182 129.355972,670.905518 126.520233,677.331604 
	C115.097900,703.215271 111.857101,730.185486 116.797607,757.850586 
	C122.131332,787.717712 135.743729,813.380005 158.627899,833.787842 
	C190.423157,862.142395 227.454681,872.539978 268.783020,863.088196 
	C309.242065,853.835205 338.339844,828.946594 355.555695,791.273254 
	C374.111633,750.667603 373.820557,709.470154 352.677673,670.109741 
	C327.300598,622.866882 287.315704,598.739807 232.812302,601.201660 
	C208.816895,602.285461 187.448212,610.996582 168.211121,625.073303 
	C155.736572,634.201477 145.500427,645.542786 136.382874,658.869507 
z"/>
<path fill="#000000" opacity="1.000000" stroke="none" 
	d="
M470.819031,233.269470 
	C472.629181,236.878448 474.103424,240.251175 475.932312,243.419174 
	C478.473206,247.820557 481.302551,252.071487 472.243256,255.162247 
	C482.066223,255.821213 487.353088,260.542114 491.650269,266.423218 
	C501.151001,279.425812 507.348633,294.208893 513.959229,308.758331 
	C514.964783,310.971436 514.101990,312.219238 512.050720,313.009521 
	C510.653687,313.547729 509.185333,313.970490 507.895233,314.702759 
	C504.876648,316.416412 503.725433,315.201355 502.408630,312.296906 
	C496.912415,300.173615 491.593994,287.936676 484.230225,276.765198 
	C481.934692,273.282684 479.425201,269.973358 475.189270,267.816772 
	C471.601746,271.312469 469.387604,275.700775 467.320251,280.207703 
	C463.711548,288.074829 460.032379,295.909607 456.413361,303.772034 
	C454.651428,307.599854 452.114471,310.911682 449.356384,314.015198 
	C444.794769,319.148163 438.712006,319.476257 433.359344,315.095703 
	C429.545013,311.974152 426.845184,307.997955 424.697937,303.616211 
	C420.082855,294.198761 415.537140,284.746674 410.836121,275.372375 
	C409.511261,272.730469 408.049316,270.086914 405.467529,267.903503 
	C400.428894,270.248138 398.122375,274.971436 395.683167,279.385376 
	C390.446686,288.861450 386.100311,298.772217 382.173553,308.860992 
	C380.952789,311.997345 379.946869,314.741241 375.437195,312.589447 
	C368.983521,309.510071 368.878540,309.759460 371.063873,304.365509 
	C375.875458,292.489380 380.588776,280.572479 387.440918,269.653656 
	C390.753296,264.375519 394.376678,259.416473 400.285187,256.805176 
	C405.149719,254.655273 409.675262,255.299561 413.727997,258.895081 
	C417.031525,261.825867 419.263245,265.484528 421.335114,269.324921 
	C426.869415,279.583160 430.937958,290.573425 436.985199,300.567261 
	C437.980438,302.212006 438.628296,304.229919 441.198517,305.227264 
	C445.552399,299.578613 448.173370,292.913696 451.305328,286.569489 
	C456.140717,276.774658 459.315643,266.043549 467.618011,258.249084 
	C468.967896,256.981750 468.655334,255.575317 467.908539,254.146179 
	C461.202972,241.314072 455.226440,228.072159 446.882172,216.155228 
	C441.179474,208.010834 439.309875,208.056213 433.717224,216.168716 
	C427.152069,225.691895 422.641724,236.265121 418.210938,246.860733 
	C414.956421,254.643387 414.609985,254.776489 407.168701,251.255814 
	C404.518433,250.001892 404.227417,248.446808 405.266510,246.100632 
	C410.921112,233.333206 416.076782,220.323349 424.161652,208.771912 
	C426.197144,205.863617 428.550629,203.291016 431.261688,201.112747 
	C438.101105,195.617416 446.036346,196.542191 452.499054,203.770065 
	C460.228149,212.414246 465.267120,222.797348 470.819031,233.269470 
z"/>
</svg>