<svg version="1.1" id="Layer_1" xmlns="http://www.w3.org/2000/svg" xmlns:xlink="http://www.w3.org/1999/xlink" x="0px" y="0px"
	 width="100%" viewBox="0 0 784 592" enable-background="new 0 0 784 592" xml:space="preserve">
<path fill="#000000" opacity="1.000000" stroke="none" 
	d="
M39.927994,231.186737 
	C50.387402,190.550690 68.554535,154.178284 94.617516,121.869408 
	C116.586723,94.635345 142.838898,72.293076 173.176285,54.750637 
	C199.774094,39.370583 228.071289,28.498335 258.140717,22.301714 
	C274.125366,19.007643 290.288239,16.759247 306.634003,16.732605 
	C370.627167,16.628311 434.623535,16.317383 498.612762,16.828043 
	C535.464600,17.122135 570.739685,25.603003 604.552856,40.433414 
	C630.045532,51.614449 653.368774,66.159782 674.532166,84.118248 
	C699.382568,105.205391 719.893738,129.982666 736.257263,158.208374 
	C751.663086,184.782028 762.523621,213.079895 768.677917,243.145401 
	C774.080505,269.538391 775.595459,296.163757 773.509277,323.074646 
	C771.239441,352.353699 764.625366,380.516968 753.529846,407.658966 
	C741.268860,437.652100 724.331970,464.700958 702.860168,489.005585 
	C675.973450,519.439453 643.911072,542.787659 607.045654,559.525696 
	C580.982849,571.358948 553.650330,578.890991 525.194641,582.434204 
	C510.763000,584.231201 496.309143,584.395325 481.819672,584.386108 
	C423.325836,584.348816 364.828217,584.733643 306.339508,584.176758 
	C269.831512,583.829224 234.927094,575.238037 201.442123,560.593262 
	C168.552567,546.208862 139.416779,526.335388 114.236809,500.914154 
	C77.704033,464.031372 52.944611,420.253540 40.050259,369.916962 
	C32.810410,341.654266 30.339514,312.845215 31.877869,283.760651 
	C32.809364,266.149597 35.652592,248.746658 39.927994,231.186737 
M724.472290,178.024200 
	C708.895935,149.179794 689.177734,123.687126 664.381836,102.059319 
	C638.586670,79.559853 609.615173,62.738281 577.435547,51.282207 
	C547.327026,40.563438 516.161072,36.403164 484.355774,36.367771 
	C432.866486,36.310478 381.377014,36.377151 329.887634,36.347198 
	C315.562775,36.338867 301.266846,36.809082 287.007446,38.237034 
	C257.585510,41.183365 229.504608,49.022717 202.849854,61.755955 
	C169.836960,77.526520 141.172073,99.055611 117.028976,126.678978 
	C89.824692,157.804840 70.861031,193.248611 60.312908,233.150970 
	C51.940674,264.822235 49.688587,296.974731 53.219471,329.596069 
	C56.383156,358.824890 64.140137,386.715027 76.793289,413.186249 
	C94.898575,451.063751 120.379593,483.059021 153.646927,508.856781 
	C182.038010,530.873108 213.514709,546.462402 248.180817,555.770935 
	C272.130646,562.201904 296.572998,564.564697 321.258881,564.619873 
	C375.914032,564.742004 430.569763,564.727905 485.224945,564.612244 
	C500.371307,564.580200 515.529358,563.810120 530.504395,561.459961 
	C583.628296,553.122498 630.051270,530.634277 669.637146,494.309387 
	C692.646667,473.195404 711.224304,448.592041 725.464478,420.733032 
	C748.468140,375.729156 757.568359,327.970886 753.462036,277.736755 
	C750.610107,242.847870 741.010376,209.781693 724.472290,178.024200 
z"/>
<path fill="#000000" opacity="1.000000" stroke="none" 
	d="
M478.799927,204.101028 
	C498.267365,219.641373 512.620117,238.497528 520.537537,261.878510 
	C529.637024,288.750122 530.079285,315.756989 520.662048,342.660980 
	C508.680939,376.889862 485.837708,401.485626 452.829803,416.002655 
	C423.520203,428.893188 393.273804,429.983856 362.750458,419.723511 
	C337.436249,411.214294 317.059998,395.917297 301.681580,374.306305 
	C283.391174,348.603088 276.030365,319.834045 279.444580,288.349182 
	C282.049469,264.327515 291.176208,242.973633 306.346436,224.418381 
	C323.357391,203.611664 344.953278,189.316391 371.176544,182.733109 
	C410.205200,172.935043 445.996582,180.266586 478.799927,204.101028 
M447.261139,398.750824 
	C458.076080,393.747345 467.925232,387.337555 476.473907,378.967499 
	C504.225830,351.795410 514.628601,318.724304 507.046112,281.039520 
	C500.086090,246.448608 479.581024,221.284851 447.324982,206.445938 
	C418.899689,193.369308 389.838379,193.033081 361.165619,205.201706 
	C320.692139,222.378494 293.378448,263.276062 297.076477,310.515137 
	C299.428558,340.560944 312.211182,365.491455 335.397583,384.046814 
	C369.066986,410.991425 406.633667,415.429108 447.261139,398.750824 
z"/>
<path fill="#000000" opacity="1.000000" stroke="none" 
	d="
M333.718842,350.207031 
	C323.007568,344.880737 322.995575,344.874908 328.219574,334.112610 
	C333.017517,324.227966 337.929779,314.402802 344.442566,305.492584 
	C348.106964,300.479279 352.228760,295.971954 358.052612,293.342804 
	C364.722198,290.331757 370.645264,291.298096 375.971313,296.233490 
	C383.107941,302.846710 386.924957,311.632996 391.538605,319.887665 
	C394.925171,325.946777 398.115723,332.113678 402.663147,337.757751 
	C407.238647,334.862244 408.838745,330.364349 410.989502,326.375977 
	C415.875854,317.314575 419.839569,307.728088 426.346283,299.603271 
	C433.612030,290.530701 443.083954,289.551910 451.903320,297.155762 
	C454.784302,299.639618 457.560059,302.416168 459.739929,305.512299 
	C468.115295,317.408386 474.112885,330.609375 480.174835,343.766541 
	C481.496094,346.634308 480.983154,348.472260 477.973755,349.597229 
	C465.797638,354.148926 468.661591,356.895355 462.790192,344.263947 
	C458.366821,334.747742 453.719513,325.360901 447.908630,316.594421 
	C445.966949,313.665070 443.755402,311.001526 440.424103,308.815552 
	C436.064331,311.425842 434.461334,316.157684 432.294525,320.260345 
	C428.256714,327.905640 424.574493,335.753326 419.892212,343.029816 
	C409.547791,359.105377 396.815338,359.201477 386.558838,343.050873 
	C380.769623,333.934784 375.730347,324.342255 370.359619,314.960693 
	C365.489319,306.453308 363.355774,306.363556 357.542664,314.568176 
	C350.098022,325.075562 344.942596,336.839325 339.249084,348.299377 
	C338.012695,350.787994 336.811829,352.266846 333.718842,350.207031 
z"/>
<path fill="#000000" opacity="1.000000" stroke="none" 
	d="
M441.496674,280.511108 
	C429.668701,286.493927 429.739960,286.457611 424.003662,275.203003 
	C419.850159,267.053833 415.540619,258.975555 410.406525,251.386124 
	C408.923096,249.193237 407.247345,247.088486 405.407745,245.187149 
	C401.476440,241.124008 399.911163,241.138275 396.230957,245.644348 
	C393.828094,248.586395 391.616852,251.768753 389.835144,255.117661 
	C385.542664,263.185822 381.208740,271.253021 377.862091,279.780823 
	C376.513885,283.216339 374.884644,284.272186 371.119232,282.453339 
	C361.099396,277.613373 360.810120,277.697723 365.658264,267.573151 
	C371.245026,255.906036 376.119385,243.753067 385.060669,234.048019 
	C395.424683,222.798706 405.603333,222.680634 416.394104,233.401169 
	C423.585907,240.546112 428.238220,249.424026 433.105164,258.120575 
	C436.271149,263.777710 439.006958,269.679321 441.827148,275.523682 
	C442.551636,277.025024 444.141663,278.734344 441.496674,280.511108 
z"/>
</svg>