<svg version="1.1" id="Layer_1" xmlns="http://www.w3.org/2000/svg" xmlns:xlink="http://www.w3.org/1999/xlink" x="0px" y="0px"
	 width="100%" viewBox="0 0 464 432" enable-background="new 0 0 464 432" xml:space="preserve">
<path fill="#000000" opacity="1.000000" stroke="none" 
	d="
M293.897400,304.460938 
	C291.109375,302.643738 290.540405,299.948303 289.698822,297.449127 
	C285.982635,286.413361 282.188446,275.400909 278.701355,264.292450 
	C277.366364,260.039703 275.313263,258.216583 270.554321,258.274017 
	C248.902084,258.535217 227.244370,258.481140 205.590240,258.319916 
	C201.584305,258.290070 199.565231,259.646240 198.395981,263.472198 
	C195.041779,274.447784 191.403610,285.336853 187.848999,296.250793 
	C185.257095,304.208923 182.986588,306.005768 174.518417,306.253540 
	C168.193863,306.438629 161.856384,306.438629 155.530930,306.276642 
	C146.155106,306.036591 143.272079,302.409271 146.175110,293.598907 
	C152.058182,275.744537 158.343353,258.022247 164.501495,240.258911 
	C179.489883,197.024597 194.510880,153.801590 209.494751,110.565720 
	C213.345840,99.453430 215.566086,97.661186 227.173264,97.719246 
	C237.653015,97.771660 248.137039,97.192802 258.617584,98.169792 
	C264.974731,98.762413 268.185974,102.193718 270.190125,108.054939 
	C280.793396,139.064682 291.633057,169.993698 302.416504,200.941727 
	C312.652283,230.317978 322.986084,259.660278 333.145142,289.062988 
	C338.152405,303.555176 336.147736,306.435120 321.015808,306.272919 
	C312.083710,306.177185 303.018250,307.654297 293.897400,304.460938 
M255.433853,225.649796 
	C258.853943,225.446228 262.348450,226.155014 266.409119,224.849243 
	C257.146545,197.040741 247.968750,169.486771 238.790955,141.932816 
	C238.296295,142.010773 237.801636,142.088745 237.306976,142.166718 
	C228.206528,169.554550 219.106064,196.942398 209.567307,225.649323 
	C225.320633,225.649323 239.886719,225.649323 255.433853,225.649796 
z"/>
<path fill="#000000" opacity="1.000000" stroke="none" 
	d="
M67.248611,142.427658 
	C72.781654,122.042580 80.310257,102.862411 89.377991,84.251907 
	C91.006805,80.908936 93.300186,79.151047 96.907623,78.549026 
	C104.717644,77.245659 112.503525,77.222412 120.242851,78.799881 
	C126.116463,79.997070 127.715721,82.961365 125.353226,88.638695 
	C114.758263,114.099579 107.139511,140.398880 102.849365,167.642487 
	C100.204842,184.435959 99.290932,201.345291 99.115662,218.348633 
	C98.651123,263.417328 107.945152,306.505188 124.682785,348.150757 
	C128.423431,357.458008 126.342026,360.887726 116.430260,361.322510 
	C113.109238,361.468170 109.751343,361.151886 106.459030,361.503296 
	C96.143631,362.604431 90.656395,357.783081 86.354630,348.485962 
	C72.543755,318.637512 62.798649,287.698059 58.830452,255.048904 
	C54.221027,217.123947 57.012535,179.683212 67.248611,142.427658 
z"/>
<path fill="#000000" opacity="1.000000" stroke="none" 
	d="
M380.674500,241.806641 
	C381.867401,225.360092 381.831238,209.364517 380.552063,193.433014 
	C378.078308,162.624023 371.753357,132.605698 360.696747,103.666893 
	C358.618164,98.226578 356.470276,92.812706 354.346405,87.389763 
	C352.720612,83.238609 354.223328,80.424599 358.325348,79.321693 
	C367.499023,76.855171 376.745392,76.969986 385.952484,79.287811 
	C388.454407,79.917656 389.706848,81.899391 390.735321,84.054573 
	C405.140167,114.240562 415.732971,145.590836 420.439056,178.847961 
	C422.872345,196.043625 423.886322,213.285629 423.230804,230.592422 
	C421.562256,274.645386 410.326355,316.227417 390.375153,355.509674 
	C388.456970,359.286377 385.297241,360.703278 381.559174,361.130035 
	C374.766693,361.905548 367.917572,361.926392 361.135468,361.145752 
	C354.033691,360.328308 352.033295,356.784363 354.831909,349.924866 
	C363.651611,328.307251 370.602234,306.126343 375.180908,283.229950 
	C377.885223,269.706787 379.613708,256.036835 380.674500,241.806641 
z"/>
</svg>