<?xml version="1.0" encoding="utf-8"?>
<!-- Svg Vector Icons : http://www.onlinewebfonts.com/icon -->
<!DOCTYPE svg PUBLIC "-//W3C//DTD SVG 1.1//EN" "http://www.w3.org/Graphics/SVG/1.1/DTD/svg11.dtd">
<svg version="1.1" xmlns="http://www.w3.org/2000/svg" xmlns:xlink="http://www.w3.org/1999/xlink" x="0px" y="0px" viewBox="0 0 256 256" enable-background="new 0 0 256 256" xml:space="preserve">
<metadata> Svg Vector Icons : http://www.onlinewebfonts.com/icon </metadata>
<g><g><g><path fill="#000000" d="M117.5,11.5c-1.3,0.2-5.5,0.8-9.4,1.4c-22.6,3.3-46.7,15.7-63.8,32.8C-0.4,90.5-1.6,161.9,41.8,207.7c17.9,19,40.5,31.2,66.1,35.6c17.3,3,41.2,1.3,57.5-4.2c61.9-20.7,95.1-86.7,74.5-148.1c-15.4-46.2-58.8-78.1-108.3-79.5C125.1,11.2,118.8,11.2,117.5,11.5z M146.2,28c20.4,3.4,43.5,16,57.3,31.1c23.6,25.9,32.6,61,23.8,95c-2.4,9.5-10.6,26.3-16.7,34.3c-14.7,19.3-33.8,32-58.2,38.7c-6.1,1.7-9.9,2-24.1,2c-15.4,0.1-17.7-0.2-26.1-2.4c-10.4-2.8-23.9-8.9-32.7-14.7c-7.8-5.3-21.9-19.4-26.9-27.2c-10.8-16.4-16-32.2-16.8-51.2c-0.7-14.5,0.6-24.7,4.4-36.2C46.5,48.2,94.9,19.4,146.2,28z"/><path fill="#000000" d="M52.5,75.4c-0.4,0.3-0.7,24.4-0.7,53.5v52.8h11.3h11.3v-21.1v-21.1l17.2-0.2l17.1-0.3v-9.9v-9.9l-17.1-0.3l-17.2-0.2v-11.7V95.4h18.3H111V85.1V74.8H82.1C66.1,74.8,52.8,75.1,52.5,75.4z"/><path fill="#000000" d="M116.8,106.4c0.3,0.9,4.8,18.3,10.1,38.6l9.7,36.9l10.3-0.3l10.3-0.3l4-15.3c2.3-8.4,4.8-19.6,5.6-24.9l1.7-9.4l1.6,8.8c0.8,4.9,3.3,16.1,5.5,25l3.9,16.2h10.1c8.9,0,10.2-0.2,10.7-1.7c2.1-6.8,20.3-73.6,20.3-74.3c0-0.7-3.7-0.9-10.5-0.8l-10.6,0.3l-3.5,18.3c-1.9,10-3.9,22-4.6,26.5c-0.7,4.5-1.5,8-2,7.7c-0.4-0.3-0.8-1.2-0.8-2.1c0.1-0.8-2.3-12.7-5.3-26.3l-5.4-24.7l-8.8,0.3l-8.8,0.3l-3.6,15.5c-2,8.5-4.8,20.9-6.2,27.7l-2.6,12.2l-0.7-5.2c-0.4-2.8-2.4-15.4-4.7-28l-3.9-22.7h-11.2C117.3,104.8,116.4,105,116.8,106.4z"/></g></g></g>
</svg>